<svg width="52" height="52" viewBox="0 0 52 52" fill="none" xmlns="http://www.w3.org/2000/svg">
<path d="M26 0C11.641 0 0 11.641 0 26C0 40.359 11.641 52 26 52C40.359 52 52 40.359 52 26C52 11.641 40.359 0 26 0ZM19 38H14V20H19V38ZM16.485 18H16.457C14.965 18 14 16.888 14 15.499C14 14.08 14.995 13 16.514 13C18.035 13 18.972 14.08 19 15.499C19 16.887 18.035 18 16.485 18ZM38 38H33V29C33 26 31.554 25 30 25C28.555 25 27 26 27 29V38H22V20H27V23C27.343 22.019 28.984 20 32 20C36 20 38 23 38 28V38Z" fill="white"/>
</svg>
