<svg width="46" height="46" viewBox="0 0 46 46" fill="none" xmlns="http://www.w3.org/2000/svg">
<path d="M23 0C10.317 0 0 10.317 0 23C0 35.683 10.317 46 23 46C35.683 46 46 35.683 46 23C46 10.317 35.683 0 23 0ZM34.237 18.524C34.247 18.76 34.253 19 34.253 19.241C34.253 26.559 28.68 35 18.491 35C15.363 35 12.45 34.083 10 32.511C10.433 32.563 10.872 32.588 11.321 32.588C13.917 32.588 16.306 31.704 18.2 30.218C15.776 30.174 13.732 28.569 13.025 26.371C13.364 26.436 13.711 26.471 14.069 26.471C14.574 26.471 15.064 26.404 15.527 26.276C12.995 25.765 11.086 23.529 11.086 20.844C11.086 20.82 11.086 20.797 11.086 20.774C11.833 21.189 12.686 21.439 13.595 21.468C12.107 20.473 11.131 18.779 11.131 16.857C11.131 15.842 11.403 14.891 11.88 14.071C14.613 17.422 18.695 19.627 23.298 19.859C23.203 19.453 23.153 19.031 23.153 18.597C23.153 15.538 25.633 13.058 28.693 13.058C30.286 13.058 31.725 13.73 32.735 14.807C33.996 14.559 35.183 14.098 36.253 13.464C35.84 14.756 34.961 15.842 33.816 16.528C34.938 16.392 36.004 16.096 36.999 15.655C36.257 16.766 35.318 17.743 34.237 18.524Z" fill="white"/>
</svg>
